<svg xmlns="http://www.w3.org/2000/svg" width="32" height="32" fill="none" viewBox="0 0 32 32"><path fill="#fff" d="M14.6666 12H17.3333V8.00004H21.3333V5.33337H17.3333V1.33337H14.6666V5.33337H10.6666V8.00004H14.6666V12ZM9.33331 24C7.86665 24 6.67998 25.2 6.67998 26.6667C6.67998 28.1334 7.86665 29.3334 9.33331 29.3334C10.8 29.3334 12 28.1334 12 26.6667C12 25.2 10.8 24 9.33331 24ZM22.6666 24C21.2 24 20.0133 25.2 20.0133 26.6667C20.0133 28.1334 21.2 29.3334 22.6666 29.3334C24.1333 29.3334 25.3333 28.1334 25.3333 26.6667C25.3333 25.2 24.1333 24 22.6666 24ZM10.8 17.3334H20.7333C21.7333 17.3334 22.6133 16.7867 23.0666 15.96L28.2133 6.61337L25.8933 5.33337L20.7333 14.6667H11.3733L5.69331 2.66671H1.33331V5.33337H3.99998L8.79998 15.4534L6.99998 18.7067C6.02665 20.4934 7.30665 22.6667 9.33331 22.6667H25.3333V20H9.33331L10.8 17.3334Z"/></svg>