<svg width="32" height="32" viewBox="0 0 32 32" fill="none" xmlns="http://www.w3.org/2000/svg">
<path d="M16 2.66663L8.66667 14.6666H23.3333L16 2.66663ZM16 7.78663L18.5733 12H13.4133L16 7.78663ZM23.3333 17.3333C20.0133 17.3333 17.3333 20.0133 17.3333 23.3333C17.3333 26.6533 20.0133 29.3333 23.3333 29.3333C26.6533 29.3333 29.3333 26.6533 29.3333 23.3333C29.3333 20.0133 26.6533 17.3333 23.3333 17.3333ZM23.3333 26.6666C21.4933 26.6666 20 25.1733 20 23.3333C20 21.4933 21.4933 20 23.3333 20C25.1733 20 26.6667 21.4933 26.6667 23.3333C26.6667 25.1733 25.1733 26.6666 23.3333 26.6666ZM4 28.6666H14.6667V18H4V28.6666ZM6.66667 20.6666H12V26H6.66667V20.6666Z" fill="#F54749"/>
</svg>
