<svg xmlns="http://www.w3.org/2000/svg" width="32" height="32" fill="none" viewBox="0 0 32 32"><path fill="#F54749" d="M16 2.66669C10.84 2.66669 6.66666 6.84002 6.66666 12C6.66666 19 16 29.3334 16 29.3334C16 29.3334 25.3333 19 25.3333 12C25.3333 6.84002 21.16 2.66669 16 2.66669ZM9.33332 12C9.33332 8.32002 12.32 5.33335 16 5.33335C19.68 5.33335 22.6667 8.32002 22.6667 12C22.6667 15.84 18.8267 21.5867 16 25.1734C13.2267 21.6134 9.33332 15.8 9.33332 12Z"/><path fill="#F54749" d="M16 15.3334C17.8409 15.3334 19.3333 13.841 19.3333 12C19.3333 10.1591 17.8409 8.66669 16 8.66669C14.159 8.66669 12.6667 10.1591 12.6667 12C12.6667 13.841 14.159 15.3334 16 15.3334Z"/></svg>