<svg width="32" height="32" viewBox="0 0 32 32" fill="none" xmlns="http://www.w3.org/2000/svg">
<path d="M15.7333 14.5333C12.7066 13.7467 11.7333 12.9333 11.7333 11.6667C11.7333 10.2133 13.08 9.2 15.3333 9.2C17.7066 9.2 18.5866 10.3333 18.6666 12H21.6133C21.52 9.70667 20.12 7.6 17.3333 6.92V4H13.3333V6.88C10.7466 7.44 8.66664 9.12 8.66664 11.6933C8.66664 14.7733 11.2133 16.3067 14.9333 17.2C18.2666 18 18.9333 19.1733 18.9333 20.4133C18.9333 21.3333 18.28 22.8 15.3333 22.8C12.5866 22.8 11.5066 21.5733 11.36 20H8.42664C8.58664 22.92 10.7733 24.56 13.3333 25.1067V28H17.3333V25.1333C19.9333 24.64 22 23.1333 22 20.4C22 16.6133 18.76 15.32 15.7333 14.5333Z" fill="#F54749"/>
</svg>
